<svg xmlns="http://www.w3.org/2000/svg" viewBox="0 0 220 320">
  <rect width="220" height="320" fill="#f8fafc"/>
  <circle cx="110" cy="42" r="24" fill="#cbd5e1"/>
  <path d="M70 78c-22 18-34 48-34 88v82h148v-82c0-40-12-70-34-88-14 16-66 16-80 0Z" fill="#e2e8f0"/>
  <path d="M46 116 24 204M174 116l22 88M82 248l-18 54M138 248l18 54" stroke="#cbd5e1" stroke-width="24" stroke-linecap="round"/>
  <path d="M64 104c24 0 36 28 46 92 10-64 22-92 46-92 4 58-14 96-46 116-32-20-50-58-46-116Z" fill="#2563eb"/>
  <path d="M110 90v130" stroke="#94a3b8" stroke-width="5" stroke-linecap="round"/>
  <text x="110" y="306" text-anchor="middle" font-family="Arial" font-size="16" font-weight="700" fill="#334155">COSTAS</text>
</svg>
