<svg xmlns="http://www.w3.org/2000/svg" viewBox="0 0 220 320">
  <rect width="220" height="320" fill="#f8fafc"/>
  <circle cx="110" cy="42" r="24" fill="#cbd5e1"/>
  <path d="M70 78c-22 18-34 48-34 88v82h148v-82c0-40-12-70-34-88-14 16-66 16-80 0Z" fill="#e2e8f0"/>
  <path d="M82 248l-18 54M138 248l18 54" stroke="#cbd5e1" stroke-width="24" stroke-linecap="round"/>
  <path d="M42 112c24-8 40 16 34 52-4 24-18 50-44 44-8-38-4-76 10-96Z" fill="#a855f7"/>
  <path d="M178 112c-24-8-40 16-34 52 4 24 18 50 44 44 8-38 4-76-10-96Z" fill="#a855f7"/>
  <text x="110" y="306" text-anchor="middle" font-family="Arial" font-size="16" font-weight="700" fill="#334155">BICEPS</text>
</svg>
