<svg xmlns="http://www.w3.org/2000/svg" viewBox="0 0 220 320">
  <rect width="220" height="320" fill="#f8fafc"/>
  <circle cx="110" cy="42" r="24" fill="#cbd5e1"/>
  <path d="M70 78c-22 18-34 48-34 88v82h148v-82c0-40-12-70-34-88-14 16-66 16-80 0Z" fill="#e2e8f0"/>
  <path d="M46 116 24 204M174 116l22 88M82 248l-18 54M138 248l18 54" stroke="#cbd5e1" stroke-width="24" stroke-linecap="round"/>
  <path d="M110 188c-42-38-56-56-56-82 0-22 16-38 38-38 8 0 16 4 24 12 8-8 16-12 24-12 22 0 38 16 38 38 0 26-14 44-68 82Z" fill="#ef4444"/>
  <path d="M54 130h30l12-24 24 52 14-28h32" fill="none" stroke="#7f1d1d" stroke-width="7" stroke-linecap="round" stroke-linejoin="round"/>
  <text x="110" y="306" text-anchor="middle" font-family="Arial" font-size="16" font-weight="700" fill="#334155">CARDIO</text>
</svg>
