<svg xmlns="http://www.w3.org/2000/svg" viewBox="0 0 220 320">
  <rect width="220" height="320" fill="#f8fafc"/>
  <circle cx="110" cy="42" r="24" fill="#cbd5e1"/>
  <path d="M72 76c-22 18-34 48-34 88v84h144v-84c0-40-12-70-34-88-12 16-64 16-76 0Z" fill="#e2e8f0"/>
  <path d="M46 116 22 202M174 116l24 86M82 248l-18 54M138 248l18 54" stroke="#cbd5e1" stroke-width="24" stroke-linecap="round"/>
  <path d="M64 112c20-22 42-21 46 12 4-33 26-34 46-12 2 36-20 56-46 56s-48-20-46-56Z" fill="#ef4444"/>
  <path d="M110 104v92" stroke="#94a3b8" stroke-width="5" stroke-linecap="round"/>
  <text x="110" y="306" text-anchor="middle" font-family="Arial" font-size="16" font-weight="700" fill="#334155">PEITORAL</text>
</svg>
