<svg xmlns="http://www.w3.org/2000/svg" viewBox="0 0 220 320">
  <rect width="220" height="320" fill="#f8fafc"/>
  <circle cx="110" cy="42" r="24" fill="#cbd5e1"/>
  <path d="M70 78c-22 18-34 48-34 88v82h148v-82c0-40-12-70-34-88-14 16-66 16-80 0Z" fill="#e2e8f0"/>
  <path d="M44 130 24 204M176 130l20 74M82 248l-18 54M138 248l18 54" stroke="#cbd5e1" stroke-width="24" stroke-linecap="round"/>
  <path d="M36 104c26-22 50-18 62 10-16 10-40 14-62 10Z" fill="#f59e0b"/>
  <path d="M184 104c-26-22-50-18-62 10 16 10 40 14 62 10Z" fill="#f59e0b"/>
  <text x="110" y="306" text-anchor="middle" font-family="Arial" font-size="16" font-weight="700" fill="#334155">OMBROS</text>
</svg>
